<svg xmlns="http://www.w3.org/2000/svg" width="649.154" height="659.289" viewBox="0 0 649.154 659.289">
  <g id="Grupo_41" data-name="Grupo 41" transform="translate(-13.734 -1117.711)">
    <path id="blob_1_" data-name="blob (1)" d="M388.136-20.274c39.251,36.547,64.305,81.038,98.128,125.132,33.823,43.7,76,86.6,84.766,134.666s-15.867,100.5-47.185,148.967c-30.9,48.067-68.481,92.161-116.084,129.5-48.02,36.944-106.9,67.532-161.6,61.573-55.119-5.959-106.48-48.464-153.665-86.2C45.731,455.625,2.721,422.654-18.157,380.546c-21.3-42.505-20.461-94.147-33.405-152.939S-90.814,102.871-66.177,66.325,33.621,22.628,93.751-2.4C153.463-27.425,198.143-70.327,247-77.875,295.436-85.025,348.884-56.424,388.136-20.274Z" transform="translate(90.066 1196.689)" fill="#ef2995"/>
    <text id="Elige_un_trabajo_que_te_gusta_y_no_tendrás_que_trabajar_un_dia_en_tu_vida_" data-name="Elige un trabajo que te gusta y no tendrás que trabajar un dia en tu vida " transform="translate(139 1267)" fill="#fff" font-size="50" font-family="Roboto-Bold, Roboto" font-weight="700"><tspan x="0" y="48">Elige un trabajo </tspan><tspan x="0" y="109">que te gusta y no </tspan><tspan x="0" y="170">tendrás que </tspan><tspan x="0" y="231">trabajar un dia en </tspan><tspan x="0" y="292">tu vida </tspan></text>
  </g>
</svg>
